<svg width="18" height="17" viewBox="0 0 18 17" fill="none" xmlns="http://www.w3.org/2000/svg">
<path d="M10.5 11.538C10.7067 11.538 10.8883 11.4597 11.045 11.303C11.2023 11.1457 11.281 10.964 11.281 10.758C11.281 10.5513 11.2023 10.3697 11.045 10.213C10.8877 10.0563 10.706 9.97767 10.5 9.977C10.2933 9.977 10.1117 10.0557 9.955 10.213C9.79833 10.3703 9.71967 10.552 9.719 10.758C9.719 10.9647 9.79767 11.1463 9.955 11.303C10.1117 11.4597 10.2933 11.538 10.5 11.538ZM10.058 8.723H10.942C10.968 8.30367 11.034 7.988 11.14 7.776C11.2467 7.564 11.5027 7.268 11.908 6.888C12.3307 6.504 12.6253 6.16067 12.792 5.858C12.9587 5.55667 13.042 5.21033 13.042 4.819C13.042 4.14567 12.802 3.58467 12.322 3.136C11.842 2.68667 11.2347 2.462 10.5 2.462C9.94467 2.462 9.45133 2.612 9.02 2.912C8.58867 3.212 8.26033 3.62067 8.035 4.138L8.846 4.496C9.03467 4.10533 9.26467 3.812 9.536 3.616C9.80667 3.42067 10.128 3.323 10.5 3.323C10.9767 3.323 11.3723 3.46433 11.687 3.747C12.0003 4.02967 12.157 4.39467 12.157 4.842C12.157 5.114 12.081 5.367 11.929 5.601C11.7763 5.83433 11.514 6.116 11.142 6.446C10.7207 6.814 10.4347 7.15167 10.284 7.459C10.1333 7.76567 10.058 8.187 10.058 8.723ZM5.115 14C4.655 14 4.271 13.846 3.963 13.538C3.65433 13.2293 3.5 12.845 3.5 12.385V1.615C3.5 1.155 3.65433 0.771 3.963 0.463C4.271 0.154333 4.655 0 5.115 0H15.885C16.345 0 16.729 0.154333 17.037 0.463C17.3457 0.771 17.5 1.155 17.5 1.615V12.385C17.5 12.845 17.346 13.2293 17.038 13.538C16.7293 13.846 16.345 14 15.885 14H5.115ZM5.115 13H15.885C16.0383 13 16.1793 12.936 16.308 12.808C16.436 12.6793 16.5 12.5383 16.5 12.385V1.615C16.5 1.46167 16.436 1.32067 16.308 1.192C16.1793 1.064 16.0383 1 15.885 1H5.115C4.96167 1 4.82067 1.064 4.692 1.192C4.564 1.32067 4.5 1.46167 4.5 1.615V12.385C4.5 12.5383 4.564 12.6793 4.692 12.808C4.82067 12.936 4.96167 13 5.115 13ZM2.115 17C1.655 17 1.271 16.846 0.963 16.538C0.654333 16.2293 0.5 15.845 0.5 15.385V3.615H1.5V15.385C1.5 15.5383 1.564 15.6793 1.692 15.808C1.82067 15.936 1.96167 16 2.115 16H13.885V17H2.115Z" fill="white"/>
</svg>
